<svg width="48" height="48" viewBox="0 0 48 48" fill="none" xmlns="http://www.w3.org/2000/svg">
<rect width="48" height="48" rx="24" fill="#608AF4"/>
<path d="M29.4166 17.9922C27.2499 21.7839 23.0749 23.9589 18.7249 23.5672L16.0833 23.3255" stroke="white" stroke-miterlimit="10" stroke-linecap="round" stroke-linejoin="round"/>
<path d="M18.5833 30.1398C20.7499 26.3481 24.9249 24.1731 29.2749 24.5648L31.9166 24.8065" stroke="white" stroke-miterlimit="10" stroke-linecap="round" stroke-linejoin="round"/>
<path d="M24.0001 32.3346C28.6025 32.3346 32.3334 28.6037 32.3334 24.0013C32.3334 19.3989 28.6025 15.668 24.0001 15.668C19.3977 15.668 15.6667 19.3989 15.6667 24.0013C15.6667 28.6037 19.3977 32.3346 24.0001 32.3346Z" stroke="white" stroke-miterlimit="10" stroke-linecap="round" stroke-linejoin="round"/>
<path d="M20.3584 16.5L23.0084 19.7917C24.7834 21.9917 26.0417 24.55 26.7084 27.2917L27.7167 31.45" stroke="white" stroke-miterlimit="10" stroke-linecap="round" stroke-linejoin="round"/>
</svg>
