<svg width="204" height="57" viewBox="0 0 204 57" fill="none" xmlns="http://www.w3.org/2000/svg">
<path d="M10.6582 43.4616C11.1158 44.0003 11.5985 44.5169 12.1047 45.0098C13.8111 46.6953 15.846 48.112 18.029 49.1835C18.8333 49.5615 19.5752 49.9531 20.4445 50.2901C20.6617 50.3739 20.8836 50.4635 21.1168 50.5443C21.352 50.6191 21.5958 50.6939 21.8508 50.7679C22.1043 50.8474 22.3745 50.9039 22.6571 50.9626C22.9399 51.0196 23.2336 51.0847 23.549 51.1172C21.9843 50.7861 20.4592 50.2888 18.9994 49.6335C17.5306 48.9686 16.1349 48.1516 14.8351 47.1959C12.2318 45.282 10.0051 42.8248 8.3787 40.0158C8.31157 39.9318 8.20964 39.7718 8.08747 39.568L7.89101 39.2341L7.69283 38.85C7.56104 38.5835 7.40925 38.313 7.29301 38.0509C7.18877 37.8217 7.07966 37.5948 6.96574 37.3703C7.4712 38.6337 8.05465 39.7389 8.70794 40.7898C9.00885 41.2718 9.32737 41.7424 9.66283 42.2009C9.61544 42.1367 9.56608 42.0743 9.51894 42.0099C9.87842 42.5068 10.2571 42.9894 10.6542 43.4566L10.6582 43.4616ZM5.39582 31.3504L5.27661 30.3906C5.33979 30.9764 5.41309 31.631 5.54711 32.2864L5.4664 31.821C5.43662 31.6651 5.41307 31.5081 5.39582 31.3504ZM26.2451 51.0493C27.8869 51.216 29.6086 51.1662 31.295 50.8985C32.9824 50.6317 34.6328 50.1586 36.1672 49.5488C33.3413 50.6641 30.3421 51.1603 27.4081 51.0773C27.0154 51.0711 26.6284 51.0773 26.2451 51.0493Z" fill="white"/>
<path d="M16.5244 47.6775L16.4604 47.6366C16.4819 47.6502 16.5029 47.6641 16.5244 47.6775ZM18.9063 48.9944C20.2591 49.6261 21.676 50.109 23.1323 50.4349C20.7413 49.8875 18.4912 48.9218 16.5244 47.6775C17.2796 48.1597 18.0736 48.606 18.9063 48.9944ZM48.7511 31.6096C48.7753 31.2182 48.8242 30.8076 48.8365 30.6122C48.9831 29.3562 49.0266 28.2837 49.0204 27.2078C48.9933 27.0138 48.9155 26.6505 48.8847 26.2374C48.8469 25.8232 48.7914 25.4178 48.7445 25.0178C48.6732 24.6212 48.6117 24.2286 48.5337 23.8438C49.0952 26.7211 49.0858 29.6095 48.5692 32.3348C48.626 32.0921 48.6867 31.8503 48.7511 31.6096Z" fill="white"/>
<path d="M5.28516 25.763C5.49445 24.054 5.93994 22.3881 6.3637 21.2782L6.19217 22.0906C6.29805 21.8526 6.46909 21.2995 6.70232 20.7142L6.87064 20.2679L7.05648 19.8352C7.17988 19.5551 7.28354 19.2896 7.39288 19.086C7.31809 19.2769 7.24603 19.4827 7.15915 19.6893C7.074 19.8966 6.97849 20.1072 6.88742 20.3189L7.26108 19.4746C6.88406 20.4224 6.55951 21.3904 6.28892 22.3742C6.00929 23.4521 5.78815 24.585 5.66919 25.602C5.63464 25.8556 5.62255 26.1033 5.60009 26.3396C5.58355 26.5759 5.55492 26.8013 5.5527 27.0143C5.54233 27.44 5.52802 27.8128 5.53518 28.111C5.56109 28.7077 5.59688 29.0051 5.64846 28.8389C5.7499 28.5088 5.74792 26.8109 6.10184 24.6861C6.29114 23.627 6.56287 22.4653 6.9316 21.3272C7.29761 20.1881 7.7774 19.0837 8.27422 18.1094L8.12811 18.4294L7.9936 18.759L7.71817 19.4255L7.46544 20.1141L7.33685 20.4613C7.29909 20.5792 7.26084 20.6976 7.22307 20.8165C6.89729 21.7594 6.6537 22.7524 6.44144 23.7533L6.30348 24.5092C6.25289 24.7604 6.23141 25.016 6.1939 25.2689C6.11541 25.7744 6.08679 26.2836 6.0431 26.7869C5.99399 27.796 5.98411 28.7926 6.07519 29.7457C6.07148 29.5193 6.06778 29.3182 6.07099 29.1235L6.09937 28.5402C6.11122 28.3399 6.109 28.1273 6.12776 27.8839C6.14503 27.6404 6.16083 27.366 6.17465 27.0413C6.27115 25.4046 6.56263 23.7842 7.01576 22.2162C7.44767 20.6414 7.95707 19.2546 8.716 17.9981L8.91369 17.6202C9.04746 17.3666 9.15876 17.1164 9.30018 16.8613C9.46135 16.5814 9.6156 16.3719 9.74048 16.1799C9.86907 15.9899 9.97816 15.823 10.103 15.661L11.0118 14.4023C11.0303 14.4001 11.0063 14.4481 10.9624 14.5194C11.1122 14.3052 11.2736 14.0993 11.4459 13.9027C11.6322 13.686 11.8131 13.4561 11.9664 13.2664C12.0024 13.2647 12.0375 13.2637 12.1202 13.2043C14.255 10.9263 16.8823 9.06995 19.8429 7.89965L20.5012 7.64231L21.1675 7.41964L21.499 7.30868L21.8347 7.21456L22.5035 7.02806C22.886 6.93567 23.2735 6.84205 23.6687 6.75783L24.2701 6.65232C24.4723 6.6174 24.6754 6.57802 24.8832 6.5587C25.2963 6.50891 25.6567 6.4039 25.8509 6.37814C26.9292 6.31646 28.0055 6.32885 29.2689 6.43164C29.3669 6.43337 29.5194 6.44229 29.6964 6.45195C29.8733 6.4621 30.0757 6.46706 30.2719 6.48514C30.5019 6.53715 30.7475 6.58867 31.0052 6.63895C32.5771 6.88366 34.0969 7.32106 35.5429 7.90287L35.5412 7.89593L36.095 8.11736L36.6602 8.37941C37.0479 8.54882 37.4278 8.76555 37.8202 8.96964C38.0172 9.07044 38.2037 9.19354 38.3972 9.305C38.5873 9.4224 38.7862 9.52642 38.9698 9.65472C39.342 9.9029 39.7194 10.1404 40.0671 10.4057C40.6278 10.8117 41.1713 11.2413 41.696 11.6931C41.7074 11.7036 41.7192 11.7132 41.7306 11.7234L41.7409 11.7328L42.1005 12.0602L42.4446 12.4047L42.7889 12.7495C42.9029 12.8652 43.0085 12.989 43.1188 13.1084C43.0655 13.0217 43.0675 12.9868 43.0695 12.9524C42.8994 12.7889 42.6983 12.5955 42.4996 12.405C42.8311 12.7077 43.1203 12.9813 43.3578 13.2048C43.4493 13.3222 43.5493 13.4376 43.6441 13.5636L43.9368 13.9515L44.248 14.355L44.5577 14.7889C45.1071 15.4918 45.5921 16.2438 46.0526 17.0106C46.2659 17.404 46.5011 17.7861 46.6909 18.1931L46.9902 18.7964L47.2597 19.4149C47.3372 19.5469 47.3071 19.4203 47.3167 19.398C47.6191 20.1317 47.8622 20.8945 48.0823 21.6633C48.5032 23.0527 48.7849 24.4807 48.9234 25.9262C48.979 26.2675 49.0027 26.6128 49.0518 26.9548L49.0214 27.679C49.0212 27.9522 49.0355 28.2254 49.0239 28.4991L48.9923 29.3229C48.9884 29.5087 48.9617 29.7115 48.9462 29.932C48.9254 30.1519 48.9146 30.3892 48.883 30.6393L48.7813 31.4299C48.7487 31.7071 48.6858 31.9919 48.6374 32.2896C48.3965 33.597 48.0404 34.8802 47.5732 36.1243C47.5135 36.3288 47.4678 36.4923 47.4271 36.5837C47.2723 36.9555 47.1072 37.3154 46.9478 37.6698C46.7693 38.0151 46.6057 38.3603 46.4228 38.6873C45.8572 39.7636 45.2009 40.7894 44.461 41.7533C44.378 41.8621 44.3008 41.9725 44.2174 42.0746L43.9711 42.3733C43.8082 42.5662 43.6626 42.7592 43.5081 42.9266C43.1993 43.2615 42.9402 43.5721 42.6971 43.8056C42.4187 44.0974 42.4436 44.111 42.6363 43.9703C42.7716 43.87 42.904 43.7658 43.0332 43.6578L43.5569 43.1837C43.7484 43.016 43.9318 42.8268 44.1085 42.6485C44.2833 42.4689 44.458 42.3052 44.5928 42.1571C44.8645 41.8621 45.0429 41.68 45.0049 41.761C44.5664 42.5895 43.7677 43.6114 42.6003 44.7419C42.0048 45.2935 41.3347 45.8928 40.5422 46.4707C40.1557 46.7731 39.726 47.0498 39.2879 47.3519C38.8353 47.6301 38.3728 47.9347 37.8671 48.2052C36.7604 48.81 38.6976 47.8399 38.7499 47.8307C38.5631 47.9784 38.3671 48.114 38.1633 48.2369C37.7985 48.4316 37.4369 48.6325 37.0591 48.7999C36.8382 48.9017 36.6212 49.0117 36.3979 49.1068L35.7243 49.3847L36.0807 49.244C36.8093 48.9534 37.4902 48.6112 38.105 48.2726C37.874 48.4128 37.6213 48.575 37.3444 48.7214C37.0475 48.8754 36.7402 49.0439 36.4319 49.1942L35.5373 49.6118C38.7378 48.445 41.679 46.514 44.0073 43.9968C45.173 42.7421 46.2125 41.3637 47.0601 39.8727C47.9129 38.3847 48.5989 36.8065 49.1056 35.167C48.3272 37.6265 47.1136 39.8858 45.655 41.7962C48.3067 38.2031 49.8877 33.7978 50.0973 29.2546C50.097 29.505 50.0723 29.7544 50.0558 30.0038C50.0353 30.2532 50.0254 30.5036 49.9963 30.7523C49.9329 31.2489 49.8875 31.7482 49.7922 32.2406C49.6382 33.2313 49.3884 34.205 49.1056 35.167C49.6639 33.428 49.9973 31.5944 50.1286 29.7504C50.2653 27.9049 50.1513 26.0483 49.8677 24.2491C50.3549 26.6323 50.4356 29.3326 50.0205 32.0011C50.3122 30.28 50.3863 28.5058 50.2742 26.7468C50.249 26.0748 50.1701 25.4076 50.1052 24.7898C50.0121 24.1766 49.9418 23.6104 49.8517 23.1524C50.2083 24.8431 50.349 26.2851 50.4176 27.6444C50.3517 24.6779 49.7394 21.6723 48.537 18.8489C49.1932 20.3823 49.732 22.0319 50.061 23.7278C50.3917 25.4219 50.5292 27.1552 50.4509 28.8226C50.4472 28.6274 50.4554 28.4325 50.444 28.2366L50.4176 27.6444C50.4884 30.3317 50.076 32.9953 49.2586 35.5001C48.8484 36.7524 48.3417 37.9692 47.7284 39.1272C47.1163 40.2833 46.4097 41.3865 45.6158 42.4253C46.5223 41.3627 47.4794 39.8608 48.2433 38.211C49.0037 36.5577 49.5681 34.7697 49.9563 33.2081C49.3852 36.0123 48.2516 38.7794 46.6069 41.2505C44.9667 43.7236 42.8182 45.898 40.3324 47.5669C37.8496 49.241 35.0325 50.3997 32.1417 50.9721C30.7063 51.2581 29.2473 51.4081 27.7839 51.4201C26.3472 51.4278 24.9128 51.3022 23.4991 51.0449L24.2408 51.1863C24.4881 51.2334 24.7388 51.2594 24.9876 51.2965C25.4851 51.3768 25.9884 51.407 26.4899 51.4533C27.4951 51.51 28.5058 51.5291 29.5132 51.4521C30.5224 51.3983 31.5252 51.2472 32.5233 51.0627C33.0184 50.9498 33.5194 50.8574 34.0083 50.7125C34.2536 50.6436 34.5019 50.5834 34.7455 50.5069L35.4748 50.2696C35.1066 50.3841 34.7191 50.5356 34.3052 50.6469L33.7867 50.7999C34.8749 50.5087 35.9399 50.1365 36.9729 49.6863C37.4455 49.4794 37.9106 49.256 38.3676 49.0164C37.5114 49.4721 36.6284 49.8751 35.7233 50.2231C33.9976 50.8694 32.2041 51.3166 30.3776 51.5561C30.1036 51.5997 29.8538 51.6133 29.63 51.6368L29.0307 51.6963C28.6781 51.7243 28.4177 51.7369 28.2355 51.757C27.871 51.7934 27.8192 51.8273 27.9643 51.8553C28.1092 51.8833 28.4507 51.9056 28.8708 51.9175C29.2896 51.915 29.7865 51.8924 30.2384 51.8511C34.7788 51.3837 38.9476 49.5954 42.2883 46.9182C45.6313 44.2406 48.1917 40.6836 49.6187 36.6476C49.7083 36.4133 49.7771 36.1716 49.8517 35.9318C49.924 35.6913 50.004 35.4533 50.0694 35.2106C50.1905 34.7226 50.3339 34.2404 50.4267 33.745L50.5795 33.0057L50.6997 32.2597L50.7592 31.8864L50.8016 31.5107L50.886 30.7592C51.0583 28.7495 50.9902 26.7183 50.6856 24.7249C50.5227 23.597 50.2365 22.2578 49.8675 21.0649L49.5837 20.202C49.4849 19.9278 49.38 19.6693 49.2867 19.426L49.1493 19.0756L49.0084 18.7608L48.7662 18.2347C47.9927 16.6597 47.0208 15.1575 45.8831 13.7603C44.7465 12.3626 43.4407 11.0685 41.9685 9.94154L41.4147 9.51974L40.8403 9.12146L40.5526 8.92183L40.2557 8.73459L39.6591 8.36108C38.8459 7.88949 38.013 7.435 37.1348 7.05803C36.2658 6.66223 35.3563 6.34099 34.4306 6.05367C33.9629 5.92488 33.4974 5.78122 33.0179 5.6824C32.779 5.63063 32.542 5.56772 32.3004 5.52438L31.5738 5.39534C29.8363 5.08846 28.029 5.01539 26.2233 5.15162C24.4187 5.29156 22.6064 5.63534 20.8687 6.22879L20.2183 6.45492C20.0009 6.52848 19.7914 6.62384 19.5774 6.70731C19.3656 6.79623 19.1492 6.874 18.9414 6.97208L18.3165 7.26261C18.1062 7.35574 17.9031 7.46274 17.7004 7.57097L17.0911 7.89222L16.4982 8.24195C16.3008 8.35885 16.1019 8.47303 15.9128 8.60307L15.3392 8.98152C15.1462 9.10462 14.9676 9.24853 14.7812 9.38079C14.5983 9.518 14.4085 9.64581 14.2318 9.79045L13.6995 10.2207C13.5196 10.3606 13.3498 10.5124 13.1804 10.6645L12.6713 11.1178L12.1848 11.5931C12.0229 11.7514 11.8593 11.9079 11.7085 12.0763C10.4668 13.3885 9.37595 14.8201 8.48375 16.335C7.60884 17.821 6.89189 19.3951 6.3447 21.0315C5.26493 24.2316 4.95519 27.4769 5.09932 30.4083C5.06822 29.2015 5.06304 27.471 5.28516 25.763ZM40.1172 48.1648C40.8672 47.6783 41.5894 47.15 42.2805 46.5824C41.5795 47.1617 40.8594 47.6967 40.1172 48.1648ZM50.043 34.7202C49.9692 34.9433 49.9067 35.1638 49.8253 35.3743L49.5891 35.9992L49.4741 36.3083L49.3475 36.6132C49.2629 36.8186 49.1809 37.0251 49.1014 37.2326C48.6444 38.3749 48.1009 39.4803 47.4757 40.5392C46.8535 41.598 46.1323 42.5902 45.3618 43.5213C44.9812 43.9916 44.5666 44.4278 44.1589 44.864L43.5219 45.4889C43.3128 45.6989 43.084 45.8862 42.8674 46.0843C42.6857 46.2428 42.5026 46.3979 42.3182 46.5504C43.0029 45.986 43.6537 45.3813 44.267 44.7394C43.3796 45.6624 42.4144 46.5067 41.3821 47.2628C41.1264 47.4416 40.8793 47.6333 40.6138 47.8017L39.8124 48.3142L38.9659 48.7969C38.6778 48.9574 38.3738 49.1001 38.069 49.2564C38.2873 49.1273 38.5082 49.0027 38.7316 48.8829C38.9836 48.7424 39.248 48.5765 39.5061 48.4246C39.7663 48.2758 40.0027 48.1123 40.1992 47.9756C40.3956 47.8389 40.5496 47.7254 40.6298 47.6521C40.5153 47.7301 40.3988 47.8049 40.2828 47.881C40.4076 47.7984 40.5316 47.7146 40.6548 47.6296C40.6496 47.6353 40.6387 47.6442 40.6298 47.6521C43.3279 45.8029 45.6264 43.3729 47.3486 40.6026C49.0784 37.8348 50.2041 34.7125 50.6706 31.5372C50.5694 32.8108 50.3369 33.8278 50.043 34.7202ZM46.3157 15.3886C47.0584 16.5143 47.7004 17.7039 48.2341 18.9433C48.2958 19.0793 48.3541 19.2172 48.4116 19.3554C49.6365 22.3658 50.1938 25.595 50.1121 28.7763C50.1328 27.7236 50.0632 26.6715 49.9469 25.6282C49.8154 24.426 49.5723 23.2381 49.25 22.0762C48.6177 19.7463 47.5907 17.5379 46.2871 15.5248C46.4068 15.6907 46.5329 15.8706 46.6635 16.0613C46.8033 16.2586 46.9342 16.4622 47.0559 16.6713L46.8984 16.3966L46.7284 16.1294L46.3883 15.5954C46.1568 15.2427 45.9058 14.9029 45.6641 14.5571C45.402 14.2267 45.1535 13.8854 44.8808 13.5636C44.6745 13.3276 44.4768 13.0836 44.2675 12.8506C45.0059 13.632 45.6992 14.4704 46.3157 15.3886ZM28.9782 5.37131C29.3402 5.39063 29.703 5.42605 30.0658 5.45329C30.363 5.47831 30.6587 5.5224 30.9514 5.55559C31.0392 5.5593 31.132 5.56525 31.2485 5.57837C31.3648 5.59447 31.5037 5.62444 31.6851 5.66605C33.0349 5.89194 34.2665 6.23151 35.1406 6.58223C36.8184 7.21951 38.3795 8.01234 39.7954 8.92803C41.2118 9.84197 42.4828 10.8815 43.5582 12.0169C44.0537 12.5566 43.9091 12.4389 43.6359 12.1769L44.0461 12.6138C43.8644 12.432 43.686 12.2477 43.5016 12.0699L42.9337 11.5522C43.072 11.6736 43.4071 11.9641 43.6359 12.1769C41.8123 10.3096 39.6806 8.75911 37.3732 7.61853C35.0641 6.47845 32.5776 5.77429 30.092 5.49317C30.4913 5.53775 30.6873 5.54766 30.8739 5.55261C30.6061 5.52116 30.3376 5.47806 30.0658 5.45329C29.7008 5.42927 29.3365 5.39657 28.9742 5.37874L27.8982 5.35323C28.2545 5.35298 28.6156 5.36289 28.9782 5.37131Z" fill="white"/>
<path d="M33.6813 50.8314L33.7864 50.8004C33.6763 50.8301 33.568 50.8628 33.4572 50.8911C33.5322 50.8723 33.6075 50.8539 33.6813 50.8314ZM44.6596 41.286C45.7048 39.9022 46.6284 38.2486 47.218 36.8242L47.2109 36.8257C45.715 40.373 43.2886 43.4289 40.2608 45.6789C40.7984 45.3039 41.3266 44.9155 41.8448 44.514C42.5107 43.8155 43.625 42.6797 44.6596 41.286ZM13.7908 45.421C15.5609 47.0092 17.6955 48.3912 20.0715 49.3223C20.998 49.6722 21.9435 49.9789 22.9105 50.1948C23.3902 50.3192 23.8801 50.396 24.3664 50.4874C24.61 50.5307 24.8568 50.5547 25.1016 50.5894C25.3469 50.6214 25.5917 50.6575 25.8388 50.6719C24.7235 50.5478 23.6163 50.362 22.5385 50.0675C21.4615 49.774 20.4056 49.4112 19.3871 48.9656C18.3738 48.5129 17.393 47.9904 16.4516 47.4017C15.5172 46.8053 14.6311 46.1393 13.7908 45.421ZM35.6397 48.2523L35.092 48.468L34.5327 48.6553C34.1625 48.789 33.7807 48.8891 33.3999 48.9953C33.7827 48.8987 34.1677 48.8086 34.5411 48.6847L35.1046 48.5118L35.655 48.31C35.6337 48.2991 35.5084 48.3236 35.6397 48.2523ZM29.1749 49.6611C28.8886 49.6856 28.6008 49.6834 28.3125 49.6864C28.0243 49.6898 27.7355 49.696 27.4465 49.6769L27.8354 49.7136C27.9544 49.7213 28.0615 49.7304 28.1551 49.7416C28.4959 49.7124 28.8343 49.7042 29.1749 49.6611ZM17.7621 46.997C18.0931 47.1919 18.4445 47.3636 18.7933 47.5528C18.8806 47.6009 19.0391 47.6556 19.2378 47.7284C18.813 47.5454 18.406 47.3185 17.9924 47.108C17.7875 46.9988 17.5903 46.8764 17.3894 46.7625C17.189 46.6475 16.9894 46.5329 16.7998 46.4046L17.0311 46.5596L17.2722 46.7043L17.7621 46.997Z" fill="white"/>
<path d="M42.6921 19.2067C42.7394 19.3017 42.7394 19.3966 42.6685 19.4678C42.6212 19.5391 42.5266 19.6103 42.4319 19.6578C42.2427 19.729 42.0298 19.7052 41.7696 19.5391C41.6514 19.4916 41.5567 19.4441 41.4621 19.3966C41.4621 19.3966 41.4385 19.3966 41.4385 19.3729L17.2406 18.9694C17.761 19.088 18.305 19.2067 18.849 19.3729C20.5285 19.8239 21.9714 20.3699 23.2014 20.9633C24.7625 21.723 25.9215 22.5775 26.6785 23.5508C27.1989 24.1917 27.53 24.8564 27.6719 25.5922C29.0202 22.4826 30.0846 20.0613 30.2029 19.8477C30.2029 19.8477 30.3921 19.5628 30.6287 19.6578C30.8889 19.7527 30.8179 20.1325 30.8179 20.1325C30.1319 21.628 28.9729 24.168 27.7429 26.969C27.7429 26.9928 27.7429 26.9928 27.7192 27.0165C25.5667 31.8828 24.0292 35.7046 23.3906 38.5057C23.3669 38.5057 23.3669 38.4819 23.3669 38.4819C23.3669 38.4819 23.2723 38.9804 22.9885 39.0279C22.681 39.0754 22.4208 38.6481 22.4208 38.6481C22.3025 38.1259 24.6206 32.5712 27.1515 26.7554C27.2225 25.7347 26.915 24.7851 26.229 23.9068C24.9517 22.3164 22.3498 20.9396 18.7071 19.9426C15.916 19.183 13.5033 18.8981 13.4796 18.8981C13.4796 18.8981 13.2194 18.9456 13.1721 18.6608C13.1721 18.3759 13.4323 18.3284 13.5033 18.3047L41.4858 18.7794C41.746 18.7794 41.9825 18.8032 42.1954 18.8507C42.4556 18.8981 42.6448 19.0168 42.6921 19.2067ZM36.4079 20.5361C36.6917 20.631 36.6208 21.0346 36.6208 21.0346C35.4144 23.6695 34.35 25.9246 33.4748 28.3221C33.6877 28.2984 33.9479 28.2746 34.1608 28.2746H34.2317C34.4446 28.2746 34.7521 28.2984 34.8231 28.4883L34.8467 28.5595L34.8231 28.6307C34.7285 29.0105 33.6404 29.1767 33.2619 29.2479L33.2383 29.3666H33.0964C32.5996 30.7671 32.1739 32.2389 31.7954 33.8768C31.7954 33.853 31.7954 33.853 31.7717 33.853C31.7717 33.853 31.6771 34.399 31.346 34.4465C31.0148 34.5177 30.731 34.0192 30.731 34.0192C30.6364 33.6157 31.3696 31.5979 32.2448 29.3903C31.7008 29.4615 31.1331 29.5327 30.5654 29.5802C30.4235 29.6039 30.3052 29.6039 30.1633 29.6039C29.7848 29.6039 29.43 29.4853 29.43 29.1767C29.43 29.0817 29.4773 28.9868 29.5483 28.8443C30.116 27.7524 30.66 26.6367 31.1331 25.521L31.1804 25.4498C31.6298 24.3341 32.0556 23.2422 32.4814 22.1265C32.6233 21.7467 32.7652 21.3431 32.8835 20.9633C33.049 20.5598 33.2146 20.0613 33.4275 19.6815L33.5221 19.5628C33.664 19.3729 33.8533 19.2542 33.9952 19.2542C34.1371 19.2542 34.279 19.3966 34.3027 19.7052V19.7527C34.3027 20.4648 33.4985 21.8179 33.2146 22.4351L32.8835 23.1947C32.8598 23.2184 32.8598 23.2422 32.8598 23.2897C32.4577 24.2392 32.0556 25.2124 31.6298 26.1619C31.3933 26.7317 31.1331 27.3014 30.8729 27.8473C30.7546 28.1559 30.6127 28.4645 30.4708 28.7256C30.9202 28.7019 31.3696 28.6307 31.819 28.5595C32.0556 28.5357 32.3158 28.4883 32.576 28.4408L32.6469 28.3933C32.7889 28.061 32.9308 27.7049 33.0727 27.3726C34.1608 24.7851 35.9112 20.7734 35.9348 20.726C35.9348 20.726 36.1477 20.4174 36.4079 20.5361Z" fill="white"/>
<path d="M59.4836 26.126H56.1473V33.2514H54.3851V26.126H51.1687V24.3575H59.4836V26.126ZM66.4759 30.2982H66.7154L64.9874 27.0016L62.8831 31.0708C63.2709 30.8648 63.71 30.6988 64.2004 30.5729C64.9076 30.3898 65.6661 30.2982 66.4759 30.2982ZM64.0807 25.2675L63.499 24.1515H65.3981L70.1885 33.2514H68.2552L67.5538 31.9121H66.493C65.8201 31.9121 65.1072 31.9923 64.3544 32.1525C63.7157 32.2784 63.134 32.4501 62.6093 32.6676C62.1303 32.8507 61.8394 33.011 61.7368 33.1483L61.6855 33.2514H59.8377L64.0807 25.2675ZM78.618 33.2514H72.0824V24.3575H73.9131V31.4657H78.618V33.2514ZM84.4469 29.8175L82.2057 33.2514H80.3408V24.3575H82.2057V30.0578L86.2947 24.3575H88.553L85.6274 28.358L86.9277 30.5557C87.1672 30.8877 87.4239 31.1109 87.6976 31.2254C87.8915 31.3055 88.131 31.3455 88.4162 31.3455H89.0321V33.2514H88.2622C87.9086 33.2514 87.6235 33.2227 87.4068 33.1655C87.133 33.0968 86.865 32.9709 86.6026 32.7878C86.3175 32.5703 86.0095 32.2555 85.6788 31.8435L84.4469 29.8175ZM97.2392 28.1005V22.486L92.8422 28.1005H97.2392ZM100.319 29.972H99.1211V33.2514H97.2392V29.972H90.4983V28.1005L96.8114 20.3398H99.1211V28.1005H101.02L100.319 29.972ZM105.361 26.126V28.152C105.714 27.946 106.142 27.8029 106.644 27.7228C107.032 27.6655 107.528 27.6369 108.132 27.6369H109.039C109.347 27.6369 109.572 27.574 109.715 27.448C109.857 27.3221 109.929 27.1333 109.929 26.8815C109.929 26.6296 109.849 26.4408 109.689 26.3149C109.53 26.1889 109.313 26.126 109.039 26.126H105.361ZM105.361 29.9548V31.4657H109.039C109.461 31.4657 109.78 31.4028 109.997 31.2769C110.282 31.1052 110.425 30.8247 110.425 30.4356C110.425 30.1036 110.314 29.8547 110.091 29.6887C109.869 29.5227 109.518 29.4397 109.039 29.4397H108.132C107.345 29.4397 106.775 29.4741 106.421 29.5427C106.113 29.6 105.76 29.7373 105.361 29.9548ZM112.187 30.4699C112.187 31.3398 111.908 32.0209 111.349 32.5131C110.79 33.0053 110.02 33.2514 109.039 33.2514H103.598V24.3575H109.039C109.518 24.3575 109.963 24.4634 110.374 24.6752C110.784 24.8869 111.112 25.1845 111.357 25.568C111.603 25.9514 111.725 26.3835 111.725 26.8643C111.725 27.5282 111.531 28.0375 111.143 28.3924C111.474 28.587 111.731 28.8703 111.913 29.2423C112.096 29.6143 112.187 30.0235 112.187 30.4699ZM118.889 33.5261H118.854C117.554 33.5261 116.539 33.2228 115.809 32.6161C114.999 31.9751 114.594 31.025 114.594 29.7659V24.3575H116.356V29.7659C116.356 30.4871 116.59 31.0022 117.058 31.3112C117.457 31.5974 118.062 31.7404 118.871 31.7404C119.681 31.7404 120.292 31.5974 120.702 31.3112C121.158 31.0022 121.386 30.4871 121.386 29.7659V24.3575H123.149V29.7659C123.149 31.025 122.749 31.9751 121.951 32.6161C121.21 33.2228 120.189 33.5261 118.889 33.5261ZM133.032 25.1817L131.852 26.5552C131.225 26.0401 130.346 25.7826 129.217 25.7826C128.772 25.7826 128.362 25.8799 127.985 26.0745C127.609 26.2691 127.421 26.4923 127.421 26.7441C127.421 26.9501 127.461 27.1047 127.54 27.2077C127.643 27.3565 127.826 27.4595 128.088 27.5167C128.385 27.5969 128.807 27.6369 129.354 27.6369C130.54 27.6369 131.475 27.7685 132.16 28.0318C132.764 28.2493 133.186 28.5755 133.426 29.0105C133.62 29.3653 133.717 29.8175 133.717 30.3669C133.717 31.3971 133.289 32.1869 132.434 32.7363C131.624 33.2628 130.557 33.5261 129.234 33.5261C128.47 33.5261 127.732 33.3572 127.019 33.0196C126.306 32.6819 125.704 32.2212 125.214 31.6374L126.48 30.3497L126.634 30.5214C126.873 30.7732 127.067 30.9678 127.215 31.1052C127.478 31.3227 127.751 31.4886 128.037 31.6031C128.39 31.7404 128.789 31.8091 129.234 31.8091C130.055 31.8091 130.717 31.6832 131.219 31.4314C131.721 31.1796 131.972 30.8247 131.972 30.3669C131.972 29.9777 131.749 29.7144 131.304 29.5771C130.905 29.4512 130.215 29.3882 129.234 29.3882C128.094 29.3882 127.221 29.1879 126.617 28.7873C125.921 28.3523 125.573 27.6713 125.573 26.7441C125.573 26.2176 125.744 25.7483 126.086 25.3362C126.406 24.9356 126.845 24.6237 127.404 24.4004C127.962 24.1772 128.573 24.0656 129.234 24.0656C129.941 24.0656 130.574 24.14 131.133 24.2888C131.795 24.4605 132.428 24.7581 133.032 25.1817ZM137.698 33.2514H135.953V24.3575H137.698V33.2514ZM139.849 24.3575H142.056L147.411 30.5386V24.3575H149.173V33.2514H147.411L142.483 27.4652V33.2514H140.721V25.6796L139.849 24.3575ZM154.181 30.0578V31.4657H159.741V33.2514H152.435V24.3575H159.416V26.126H154.181V28.2894C154.534 28.0833 154.962 27.9402 155.464 27.8601C155.851 27.8029 156.348 27.7743 156.952 27.7743H158.252V29.5427H156.952C156.165 29.5427 155.595 29.5771 155.241 29.6458C154.933 29.703 154.58 29.8403 154.181 30.0578ZM169.026 25.1817L167.845 26.5552C167.218 26.0401 166.34 25.7826 165.211 25.7826C164.766 25.7826 164.355 25.8799 163.979 26.0745C163.602 26.2691 163.414 26.4923 163.414 26.7441C163.414 26.9501 163.454 27.1047 163.534 27.2077C163.637 27.3565 163.819 27.4595 164.081 27.5167C164.378 27.5969 164.8 27.6369 165.347 27.6369C166.534 27.6369 167.469 27.7685 168.153 28.0318C168.758 28.2493 169.18 28.5755 169.419 29.0105C169.613 29.3653 169.71 29.8175 169.71 30.3669C169.71 31.3971 169.282 32.1869 168.427 32.7363C167.617 33.2628 166.551 33.5261 165.228 33.5261C164.463 33.5261 163.725 33.3572 163.012 33.0196C162.299 32.6819 161.698 32.2212 161.207 31.6374L162.473 30.3497L162.627 30.5214C162.867 30.7732 163.061 30.9678 163.209 31.1052C163.471 31.3227 163.745 31.4886 164.03 31.6031C164.384 31.7404 164.783 31.8091 165.228 31.8091C166.049 31.8091 166.71 31.6832 167.212 31.4314C167.714 31.1796 167.965 30.8247 167.965 30.3669C167.965 29.9777 167.743 29.7144 167.298 29.5771C166.899 29.4512 166.209 29.3882 165.228 29.3882C164.087 29.3882 163.215 29.1879 162.61 28.7873C161.914 28.3523 161.566 27.6713 161.566 26.7441C161.566 26.2176 161.737 25.7483 162.08 25.3362C162.399 24.9356 162.838 24.6237 163.397 24.4004C163.956 24.1772 164.566 24.0656 165.228 24.0656C165.935 24.0656 166.568 24.14 167.127 24.2888C167.788 24.4605 168.421 24.7581 169.026 25.1817ZM178.738 25.1817L177.558 26.5552C176.931 26.0401 176.052 25.7826 174.923 25.7826C174.478 25.7826 174.068 25.8799 173.691 26.0745C173.315 26.2691 173.127 26.4923 173.127 26.7441C173.127 26.9501 173.167 27.1047 173.247 27.2077C173.349 27.3565 173.532 27.4595 173.794 27.5167C174.091 27.5969 174.513 27.6369 175.06 27.6369C176.246 27.6369 177.182 27.7685 177.866 28.0318C178.47 28.2493 178.892 28.5755 179.132 29.0105C179.326 29.3653 179.423 29.8175 179.423 30.3669C179.423 31.3971 178.995 32.1869 178.14 32.7363C177.33 33.2628 176.263 33.5261 174.94 33.5261C174.176 33.5261 173.438 33.3572 172.725 33.0196C172.012 32.6819 171.41 32.2212 170.92 31.6374L172.186 30.3497L172.34 30.5214C172.579 30.7732 172.773 30.9678 172.921 31.1052C173.184 31.3227 173.458 31.4886 173.743 31.6031C174.096 31.7404 174.495 31.8091 174.94 31.8091C175.762 31.8091 176.423 31.6832 176.925 31.4314C177.427 31.1796 177.678 30.8247 177.678 30.3669C177.678 29.9777 177.455 29.7144 177.01 29.5771C176.611 29.4512 175.921 29.3882 174.94 29.3882C173.8 29.3882 172.927 29.1879 172.323 28.7873C171.627 28.3523 171.279 27.6713 171.279 26.7441C171.279 26.2176 171.45 25.7483 171.792 25.3362C172.112 24.9356 172.551 24.6237 173.11 24.4004C173.669 24.1772 174.279 24.0656 174.94 24.0656C175.647 24.0656 176.28 24.14 176.839 24.2888C177.501 24.4605 178.134 24.7581 178.738 25.1817ZM183.404 30.0578V31.4657H188.964V33.2514H181.659V24.3575H188.639V26.126H183.404V28.2894C183.758 28.0833 184.185 27.9402 184.687 27.8601C185.075 27.8029 185.571 27.7743 186.176 27.7743H187.476V29.5427H186.176C185.389 29.5427 184.818 29.5771 184.465 29.6458C184.157 29.703 183.803 29.8403 183.404 30.0578ZM198.249 25.1817L197.069 26.5552C196.441 26.0401 195.563 25.7826 194.434 25.7826C193.989 25.7826 193.579 25.8799 193.202 26.0745C192.826 26.2691 192.638 26.4923 192.638 26.7441C192.638 26.9501 192.678 27.1047 192.757 27.2077C192.86 27.3565 193.042 27.4595 193.305 27.5167C193.601 27.5969 194.023 27.6369 194.571 27.6369C195.757 27.6369 196.692 27.7685 197.377 28.0318C197.981 28.2493 198.403 28.5755 198.643 29.0105C198.837 29.3653 198.934 29.8175 198.934 30.3669C198.934 31.3971 198.506 32.1869 197.65 32.7363C196.841 33.2628 195.774 33.5261 194.451 33.5261C193.687 33.5261 192.948 33.3572 192.236 33.0196C191.523 32.6819 190.921 32.2212 190.431 31.6374L191.697 30.3497L191.851 30.5214C192.09 30.7732 192.284 30.9678 192.432 31.1052C192.695 31.3227 192.968 31.4886 193.254 31.6031C193.607 31.7404 194.006 31.8091 194.451 31.8091C195.272 31.8091 195.934 31.6832 196.436 31.4314C196.938 31.1796 197.189 30.8247 197.189 30.3669C197.189 29.9777 196.966 29.7144 196.521 29.5771C196.122 29.4512 195.432 29.3882 194.451 29.3882C193.311 29.3882 192.438 29.1879 191.833 28.7873C191.138 28.3523 190.79 27.6713 190.79 26.7441C190.79 26.2176 190.961 25.7483 191.303 25.3362C191.622 24.9356 192.062 24.6237 192.62 24.4004C193.179 24.1772 193.79 24.0656 194.451 24.0656C195.158 24.0656 195.791 24.14 196.35 24.2888C197.012 24.4605 197.645 24.7581 198.249 25.1817Z" fill="white"/>
<path d="M67.9945 45.3785C68.3912 45.4786 68.6572 45.7527 68.6572 46.2223C68.6572 46.7634 68.2914 47.1424 67.6881 47.1424H66.3674V43.7717H67.3983C68.0182 43.7717 68.4102 44.1341 68.4102 44.668C68.4102 44.9874 68.2653 45.2497 67.9945 45.3785ZM67.9683 44.6991C67.9683 44.4082 67.7593 44.1818 67.3959 44.1818H66.8258V45.2306H67.4695C67.7736 45.2306 67.9683 44.9922 67.9683 44.6991ZM67.6073 46.7252C67.9897 46.7252 68.1964 46.4678 68.1964 46.1746C68.1964 45.8647 67.9802 45.6168 67.5788 45.6168H66.8259V46.7252L67.6073 46.7252ZM71.794 47.1424L70.9247 45.6264H70.4544V47.1424H69.9817V43.7718H71.1123C71.8153 43.7718 72.136 44.2032 72.136 44.7324C72.136 45.202 71.8605 45.5285 71.3997 45.6072L72.3474 47.1423L71.794 47.1424ZM70.4544 44.1818V45.264H71.0482C71.4852 45.264 71.6824 45.0447 71.6824 44.7253C71.6824 44.4107 71.4852 44.1818 71.0482 44.1818H70.4544ZM73.5983 47.1424V43.7718H74.071V47.1424H73.5983ZM77.9203 43.7718H78.3906V47.1424H77.8799L76.1246 44.4679V47.1424H75.6567V43.7718H76.1626L77.9203 46.4343L77.9203 43.7718ZM81.4039 47.1877C80.4633 47.1877 79.7413 46.5417 79.7413 45.4667C79.7413 44.3821 80.4681 43.7266 81.4206 43.7266C82.0382 43.7266 82.5678 43.9983 82.8576 44.5132L82.4395 44.7373C82.2281 44.3416 81.8505 44.158 81.4206 44.158C80.7412 44.158 80.2163 44.6205 80.2163 45.4572C80.2163 46.2819 80.7294 46.761 81.4372 46.761C82.0072 46.761 82.4538 46.4392 82.5322 45.8004H81.4348V45.4047H82.9906V47.1424H82.6058V46.537C82.3849 46.9493 81.9692 47.1877 81.4039 47.1877ZM84.4125 47.1424V43.7718H84.8852V47.1424H84.4125ZM88.7345 43.7718H89.2048V47.1424H88.6941L86.9388 44.4679V47.1424H86.4709V43.7718H86.9768L88.7345 46.4343L88.7345 43.7718ZM92.2181 47.1877C91.2775 47.1877 90.5555 46.5417 90.5555 45.4667C90.5555 44.3821 91.2823 43.7266 92.2348 43.7266C92.8524 43.7266 93.382 43.9983 93.6718 44.5132L93.2538 44.7373C93.0424 44.3416 92.6647 44.158 92.2348 44.158C91.5554 44.158 91.0305 44.6205 91.0305 45.4572C91.0305 46.2819 91.5436 46.761 92.2514 46.761C92.8214 46.761 93.268 46.4392 93.3464 45.8004H92.249V45.4047H93.8048V47.1424H93.42V46.537C93.1991 46.9493 92.7835 47.1877 92.2181 47.1877ZM98.8409 43.7718V44.1984H97.9906V47.1424H97.5227V44.1984H96.67V43.7718H98.8409ZM102.17 43.7718H102.643V47.1424H102.17V45.6645H100.519V47.1424H100.042V43.7718H100.519V45.2425H102.17V43.7718ZM106.055 44.1984H104.711V45.2473H105.896V45.6716H104.711V46.7132H106.055V47.1423H104.229V43.7717H106.055V44.1984ZM109.837 47.1424L108.889 43.7718H109.381L110.155 46.5129L110.977 43.7718H111.391L112.212 46.5129L112.989 43.7718H113.478L112.531 47.1424H111.963L111.184 44.6349L110.405 47.1424H109.837ZM116.154 47.1877C115.202 47.1877 114.475 46.5298 114.475 45.4547C114.475 44.3821 115.202 43.7266 116.154 43.7266C117.102 43.7266 117.831 44.3821 117.831 45.4547C117.831 46.5298 117.102 47.1877 116.154 47.1877ZM116.154 46.7419C116.827 46.7419 117.359 46.2747 117.359 45.4548C117.359 44.6419 116.827 44.1747 116.154 44.1747C115.48 44.1747 114.945 44.6419 114.945 45.4548C114.945 46.2748 115.48 46.7419 116.154 46.7419ZM120.994 47.1424L120.125 45.6264H119.655V47.1424H119.182V43.7718H120.313C121.016 43.7718 121.336 44.2032 121.336 44.7324C121.336 45.202 121.061 45.5285 120.6 45.6072L121.548 47.1423L120.994 47.1424ZM119.655 44.1818V45.264H120.248C120.686 45.264 120.883 45.0447 120.883 44.7253C120.883 44.4107 120.686 44.1818 120.248 44.1818H119.655ZM123.271 46.7133H124.419V47.1424H122.799V43.7718H123.271V46.7133ZM125.622 47.1424V43.7718H126.729C127.762 43.7718 128.287 44.4678 128.287 45.4546C128.287 46.4486 127.762 47.1423 126.729 47.1423L125.622 47.1424ZM126.095 46.7133H126.71C127.444 46.7133 127.793 46.2247 127.793 45.4547C127.793 44.6896 127.444 44.1985 126.71 44.1985H126.095V46.7133ZM133.264 43.7718V44.1984H132.413V47.1424H131.945V44.1984H131.093V43.7718H133.264ZM135.911 47.1877C134.959 47.1877 134.232 46.5298 134.232 45.4547C134.232 44.3821 134.959 43.7266 135.911 43.7266C136.859 43.7266 137.588 44.3821 137.588 45.4547C137.588 46.5298 136.859 47.1877 135.911 47.1877ZM135.911 46.7419C136.583 46.7419 137.115 46.2747 137.115 45.4548C137.115 44.6419 136.583 44.1747 135.911 44.1747C135.237 44.1747 134.702 44.6419 134.702 45.4548C134.702 46.2748 135.237 46.7419 135.911 46.7419ZM143.037 43.7718L141.933 45.5357V47.1423H141.455V45.5381L140.349 43.7718H140.885L141.693 45.109L142.503 43.7718H143.037ZM145.652 47.1877C144.699 47.1877 143.972 46.5298 143.972 45.4547C143.972 44.3821 144.699 43.7266 145.652 43.7266C146.599 43.7266 147.329 44.3821 147.329 45.4547C147.329 46.5298 146.599 47.1877 145.652 47.1877ZM145.652 46.7419C146.324 46.7419 146.856 46.2747 146.856 45.4548C146.856 44.6419 146.324 44.1747 145.652 44.1747C144.977 44.1747 144.443 44.6419 144.443 45.4548C144.443 46.2748 144.977 46.7419 145.652 46.7419ZM149.846 47.1877C149.15 47.1877 148.61 46.7753 148.61 46.0149V43.7718H149.083V45.9481C149.083 46.5036 149.416 46.7586 149.846 46.7586C150.275 46.7586 150.615 46.5012 150.615 45.9481V43.7718H151.088V46.0149C151.088 46.7753 150.546 47.1877 149.846 47.1877ZM154.415 47.1424L153.545 45.6264H153.075V47.1424H152.602V43.7718H153.733C154.436 43.7718 154.757 44.2032 154.757 44.7324C154.757 45.202 154.481 45.5285 154.02 45.6072L154.968 47.1423L154.415 47.1424ZM153.075 44.1818V45.264H153.669C154.106 45.264 154.303 45.0447 154.303 44.7253C154.303 44.4107 154.106 44.1818 153.669 44.1818H153.075ZM159.672 45.3785C160.068 45.4786 160.334 45.7527 160.334 46.2223C160.334 46.7634 159.969 47.1424 159.365 47.1424H158.045V43.7717H159.075C159.695 43.7717 160.087 44.1341 160.087 44.668C160.087 44.9874 159.942 45.2497 159.672 45.3785ZM159.646 44.6991C159.646 44.4082 159.436 44.1818 159.073 44.1818H158.503V45.2306H159.147C159.451 45.2306 159.646 44.9922 159.646 44.6991ZM159.284 46.7252C159.667 46.7252 159.874 46.4678 159.874 46.1746C159.874 45.8647 159.657 45.6168 159.256 45.6168H158.503V46.7252L159.284 46.7252ZM162.825 47.1877C162.129 47.1877 161.59 46.7753 161.59 46.0149V43.7718H162.063V45.9481C162.063 46.5036 162.395 46.7586 162.825 46.7586C163.255 46.7586 163.595 46.5012 163.595 45.9481V43.7718H164.067V46.0149C164.067 46.7753 163.526 47.1877 162.825 47.1877ZM166.634 47.1877C165.933 47.1877 165.42 46.8516 165.306 46.2795L165.788 46.1651C165.865 46.5584 166.204 46.7849 166.651 46.7849C167.009 46.7849 167.354 46.6371 167.347 46.2318C167.342 45.8314 166.91 45.7217 166.451 45.5954C165.931 45.4524 165.411 45.2879 165.411 44.6682C165.411 44.0412 165.926 43.7266 166.537 43.7266C167.128 43.7266 167.66 43.9769 167.786 44.5561L167.328 44.6729C167.245 44.2987 166.933 44.1318 166.558 44.1318C166.221 44.1318 165.886 44.2796 165.886 44.6634C165.886 45.0114 166.261 45.1139 166.686 45.2283C167.221 45.3737 167.834 45.5406 167.834 46.2175C167.834 46.8993 167.264 47.1877 166.634 47.1877ZM169.172 47.1424V43.7718H169.645V47.1424H169.172ZM173.494 43.7718H173.965V47.1424H173.454L171.699 44.4679V47.1424H171.231V43.7718H171.737L173.494 46.4343L173.494 43.7718ZM177.375 44.1984H176.03V45.2473H177.216V45.6716H176.03V46.7132H177.375V47.1423H175.548V43.7717H177.375V44.1984ZM179.789 47.1877C179.089 47.1877 178.576 46.8516 178.462 46.2795L178.944 46.1651C179.02 46.5584 179.359 46.7849 179.806 46.7849C180.165 46.7849 180.509 46.6371 180.502 46.2318C180.497 45.8314 180.065 45.7217 179.607 45.5954C179.086 45.4524 178.566 45.2879 178.566 44.6682C178.566 44.0412 179.082 43.7266 179.692 43.7266C180.283 43.7266 180.816 43.9769 180.941 44.5561L180.483 44.6729C180.4 44.2987 180.089 44.1318 179.713 44.1318C179.376 44.1318 179.041 44.2796 179.041 44.6634C179.041 45.0114 179.416 45.1139 179.842 45.2283C180.376 45.3737 180.989 45.5406 180.989 46.2175C180.989 46.8993 180.419 47.1877 179.789 47.1877ZM183.38 47.1877C182.679 47.1877 182.166 46.8516 182.052 46.2795L182.534 46.1651C182.61 46.5584 182.95 46.7849 183.397 46.7849C183.755 46.7849 184.1 46.6371 184.092 46.2318C184.088 45.8314 183.655 45.7217 183.197 45.5954C182.677 45.4524 182.157 45.2879 182.157 44.6682C182.157 44.0412 182.672 43.7266 183.283 43.7266C183.874 43.7266 184.406 43.9769 184.532 44.5561L184.073 44.6729C183.99 44.2987 183.679 44.1318 183.304 44.1318C182.967 44.1318 182.632 44.2796 182.632 44.6634C182.632 45.0114 183.007 45.1139 183.432 45.2283C183.967 45.3737 184.579 45.5406 184.579 46.2175C184.579 46.8993 184.009 47.1877 183.38 47.1877Z" fill="white"/>
</svg>
