<svg width="406" height="681" viewBox="0 0 406 681" fill="none" xmlns="http://www.w3.org/2000/svg">
<path d="M-53.1506 524.147C-47.6819 528.199 -42.0253 531.982 -36.1996 535.483C-16.5103 547.515 5.6764 556.216 28.5005 561.283C36.8735 562.99 44.6902 564.974 53.5833 566.139C55.8043 566.425 58.0822 566.757 60.4472 566.977C62.8177 567.137 65.2694 567.275 67.8237 567.381C70.376 567.542 73.0355 567.444 75.8158 567.339C78.5946 567.216 81.4931 567.146 84.5242 566.713C69.1168 567.24 53.7183 566.091 38.5896 563.286C23.3542 560.409 8.47428 555.914 -5.80849 549.872C-34.4134 537.775 -60.6677 519.621 -82.0551 496.709C-82.8681 496.067 -84.1735 494.784 -85.7644 493.131L-88.336 490.415L-91.0333 487.224C-92.8511 484.998 -94.8652 482.78 -96.5274 480.559C-98.0052 478.623 -99.5239 476.719 -101.082 474.85C-93.5847 485.687 -85.7 494.835 -77.278 503.302C-73.4033 507.182 -69.388 510.913 -65.2404 514.488C-65.825 513.988 -66.4243 513.51 -67.0071 513.008C-62.5501 516.893 -57.9437 520.596 -53.1984 524.109L-53.1506 524.147ZM-128.937 421.243L-132.148 412.389C-130.278 417.815 -128.164 423.874 -125.477 429.796L-127.249 425.557C-127.868 424.143 -128.432 422.704 -128.937 421.243ZM109.681 559.73C125.453 557.458 141.504 552.937 156.749 546.425C172.005 539.92 186.464 531.538 199.536 522.128C175.444 539.386 148.376 551.157 120.657 557.263C116.958 558.127 113.339 559.096 109.681 559.73Z" fill="#1c68f5" fill-opacity="0.1"/>
<path d="M10.79 551.181L10.1008 550.942C10.3321 551.021 10.5593 551.104 10.79 551.181ZM36.0236 558.125C50.1014 560.961 64.4569 562.228 78.8396 561.905C55.1985 562.317 31.9681 558.411 10.79 551.181C18.9318 553.999 27.359 556.384 36.0236 558.125ZM278.299 322.149C277.673 318.361 277.236 314.332 276.926 312.44C275.563 300.124 273.632 289.799 271.228 279.558C270.55 277.774 269.028 274.493 267.837 270.628C266.579 266.77 265.174 263.036 263.861 259.334C262.327 255.722 260.894 252.125 259.322 248.64C270.868 274.743 277.079 302.297 278.173 329.489C278.177 327.042 278.219 324.595 278.299 322.149Z" fill="#1c68f5" fill-opacity="0.1"/>
<path d="M-128.357 425.997C-134.385 410.268 -138.216 393.773 -139.692 382.173L-137.436 389.997C-137.626 387.437 -138.701 381.85 -139.397 375.685L-140.008 371.031L-140.409 366.409C-140.642 363.402 -140.976 360.616 -140.979 358.336C-140.741 360.341 -140.412 362.461 -140.205 364.658C-139.98 366.854 -139.828 369.127 -139.633 371.389L-140.321 362.318C-139.189 372.297 -137.52 382.198 -135.322 391.974C-132.771 402.606 -129.473 413.429 -125.838 422.762C-124.973 425.113 -123.945 427.305 -123.056 429.449C-122.118 431.564 -121.331 433.643 -120.378 435.489C-118.522 439.206 -116.942 442.486 -115.52 445.021C-112.576 450.036 -110.915 452.426 -111.237 450.746C-111.884 447.414 -119.652 432.798 -126.353 412.79C-129.584 402.756 -132.585 391.441 -134.656 379.863C-136.754 368.289 -137.731 356.466 -137.969 345.681L-137.746 349.141L-137.381 352.628L-136.672 359.695L-135.67 366.843L-135.175 370.453C-134.957 371.651 -134.74 372.855 -134.517 374.061C-132.973 383.751 -130.505 393.477 -127.734 403.12L-125.452 410.296C-124.734 412.703 -123.749 415.008 -122.913 417.367C-121.27 422.1 -119.188 426.624 -117.261 431.17C-113.07 440.099 -108.604 448.732 -103.481 456.504C-104.546 454.572 -105.496 452.857 -106.357 451.164L-108.78 446.003C-109.594 444.22 -110.583 442.4 -111.535 440.213C-112.5 438.032 -113.619 435.592 -114.985 432.728C-121.639 418.165 -126.566 402.804 -129.885 387.115C-133.414 371.471 -135.428 357.074 -134.733 342.597L-134.784 338.39C-134.808 335.562 -135.007 332.871 -134.973 329.993C-134.885 326.806 -134.535 324.259 -134.353 322.004C-134.131 319.749 -133.968 317.786 -133.65 315.789L-131.696 300.573C-131.549 300.465 -131.533 300.994 -131.579 301.82C-131.288 299.253 -130.86 296.703 -130.298 294.18C-129.708 291.417 -129.225 288.566 -128.792 286.194C-128.495 286.006 -128.202 285.829 -127.773 284.919C-120.082 255.022 -106.295 226.387 -86.551 202.057L-82.1484 196.673L-77.5185 191.548L-75.2164 188.997L-72.802 186.571L-67.986 181.745C-65.1663 179.109 -62.3104 176.437 -59.3467 173.81L-54.732 170.007C-53.1786 168.733 -51.6373 167.417 -49.9646 166.25C-46.6911 163.833 -44.1173 161.194 -42.5891 160.038C-33.7338 154.317 -24.5572 149.244 -13.3828 144.049C-12.5446 143.593 -11.2115 142.936 -9.668 142.167C-8.12221 141.403 -6.38474 140.472 -4.63965 139.683C-2.45313 139.024 -0.137131 138.286 2.27569 137.48C16.7121 132.023 31.587 128.477 46.4957 126.53L46.4494 126.478L52.1531 125.72L58.1383 125.258C62.1971 124.851 66.405 124.89 70.6618 124.76C72.7908 124.681 74.9337 124.843 77.0821 124.872C79.2284 124.969 81.3888 124.908 83.5304 125.129C87.817 125.476 92.0989 125.706 96.2564 126.318C102.861 127.117 109.427 128.202 115.936 129.569C116.08 129.604 116.224 129.63 116.367 129.663L116.498 129.694L121.039 130.784L125.527 132.097L130.019 133.41C131.513 133.857 132.973 134.416 134.453 134.913C133.606 134.423 133.463 134.113 133.323 133.807C131.135 133.217 128.548 132.518 125.995 131.834C130.185 132.846 133.886 133.812 136.917 134.594C138.229 135.164 139.603 135.677 140.982 136.307L145.232 138.24L149.711 140.218L154.317 142.465C162.181 145.877 169.723 150.021 177.126 154.41C180.728 156.772 184.466 158.932 187.932 161.524L193.223 165.281L198.33 169.312C199.589 170.076 198.756 169.131 198.736 168.892C204.647 173.757 210.19 179.159 215.565 184.722C225.473 194.665 234.38 205.611 242.152 217.396C244.181 220.069 245.958 222.929 247.935 225.639L250.984 232.024C252.229 234.379 253.598 236.663 254.749 239.077L258.242 246.325C259.056 247.944 259.757 249.82 260.631 251.794C261.46 253.788 262.451 255.885 263.325 258.192L266.073 265.491C267.062 268.036 267.829 270.792 268.778 273.59C272.705 286.011 275.545 298.779 277.266 311.744C277.694 313.794 278.053 315.422 278.125 316.405C278.511 320.352 278.755 324.247 279.022 328.067C279.086 331.9 279.276 335.662 279.219 339.359C279.34 351.352 278.461 363.347 276.592 375.212C276.386 376.548 276.235 377.871 275.994 379.152L275.271 382.91C274.772 385.356 274.418 387.719 273.874 389.905C272.786 394.276 272.008 398.198 271.015 401.38C269.988 405.233 270.261 405.231 271.252 403.091C271.94 401.576 272.586 400.041 273.188 398.489L275.461 391.885C276.319 389.518 277.009 387.006 277.692 384.619C278.353 382.231 279.086 379.98 279.552 378.056C280.508 374.207 281.189 371.78 281.236 372.661C281.302 381.908 279.2 394.555 274.469 409.911C271.941 417.528 268.999 425.917 264.922 434.708C263.028 439.173 260.65 443.624 258.317 448.336C255.751 452.91 253.223 457.76 250.173 462.524C243.557 473.06 255.542 455.38 255.944 455.049C255.035 457.22 253.994 459.332 252.827 461.372C250.625 464.804 248.478 468.274 246.041 471.535C244.634 473.475 243.298 475.466 241.839 477.361L237.401 482.996L239.778 480.069C244.625 474.06 248.833 467.834 252.496 461.959C251.179 464.278 249.778 466.892 248.1 469.486C246.287 472.242 244.453 475.171 242.527 477.95L236.852 485.853C258.645 460.399 274.752 429.611 282.99 396.722C287.139 380.303 289.655 363.427 290.03 346.504C290.463 329.581 289.071 312.685 285.88 296.123C290.512 321.056 290.544 346.359 286.905 369.835C292.971 326.122 286.257 280.564 267.292 240.419C268.433 242.577 269.363 244.844 270.361 247.073C271.326 249.32 272.386 251.524 273.274 253.807C275.004 258.39 276.899 262.91 278.339 267.61C281.557 276.885 283.885 286.475 285.88 296.123C282.672 278.456 277.127 261.056 269.822 244.54C262.555 227.984 253.114 212.539 242.497 198.405C257.505 216.59 270.516 239.463 279.18 264.448C273.795 248.218 266.323 232.578 257.344 217.964C254.063 212.297 250.347 206.929 246.978 201.92C243.389 197.085 240.209 192.546 237.355 189.035C248.095 201.882 255.87 213.627 262.656 225.006C248.556 199.769 229.646 176.824 206.569 158.29C219.13 168.341 231.225 179.958 241.755 192.984C252.291 205.986 261.368 220.256 268.317 234.996C267.395 233.332 266.574 231.614 265.583 229.981L262.656 225.006C275.524 247.815 284.189 272.745 288.698 298.256C290.939 311.018 292.201 323.939 292.29 336.865C292.381 349.77 291.43 362.674 289.445 375.443C292.275 361.928 293.529 344.383 292.47 326.495C291.365 308.594 287.986 290.475 284.146 275.154C292.109 302.059 295.136 331.351 292.48 360.554C289.872 389.751 281.594 418.822 268.149 445.161C254.753 471.531 236.173 495.069 214.29 513.911C203.434 523.284 191.756 531.597 179.41 538.743C167.271 545.723 154.544 551.544 141.391 556.131L148.321 553.78C150.631 552.995 152.874 552.013 155.152 551.135C159.734 549.432 164.136 547.271 168.597 545.256C177.374 540.907 186.025 536.208 194.21 530.696C202.516 525.376 210.323 519.249 217.937 512.856C221.617 509.501 225.44 506.294 228.922 502.693C230.686 500.919 232.515 499.206 234.23 497.374L239.326 491.82C236.729 494.578 234.137 497.749 231.138 500.698L227.443 504.512C235.334 496.767 242.66 488.435 249.358 479.586C252.417 475.529 255.339 471.366 258.117 467.103C252.943 475.149 247.3 482.87 241.22 490.223C229.547 504.096 216.392 516.58 202.008 527.433C199.886 529.126 197.832 530.446 196.042 531.726L191.236 535.122C188.375 537.06 186.227 538.422 184.775 539.471C181.852 541.539 181.568 542.081 182.926 541.624C184.281 541.168 187.277 539.716 190.891 537.797C194.428 535.76 198.535 533.175 202.175 530.644C238.515 504.767 265.675 469.3 281.761 430.16C297.863 391.006 303.32 348.043 296.987 306.408C296.677 303.959 296.157 301.545 295.694 299.121C295.209 296.701 294.8 294.266 294.246 291.86C293.045 287.074 292.059 282.23 290.584 277.516L288.503 270.412L286.116 263.407L284.916 259.905L283.56 256.464L280.845 249.585C273.13 231.443 263.28 214.273 251.6 198.568C245.071 189.635 236.531 179.476 227.959 170.976L221.615 164.909C219.527 163.022 217.457 161.299 215.557 159.653L212.792 157.295L210.161 155.262L205.707 151.895C191.963 142.05 176.87 133.787 160.851 127.226C144.841 120.656 127.868 115.792 110.249 113.169L103.63 112.201L96.9458 111.534L93.596 111.199L90.2254 111.015L83.4657 110.668C74.4221 110.519 65.2893 110.612 56.1276 111.591C46.9574 112.363 37.7846 113.973 28.6286 115.953C24.0777 117.094 19.4778 118.097 14.9633 119.553C12.7026 120.257 10.4078 120.856 8.16256 121.645L1.41678 124.03C-14.7067 129.748 -30.3546 137.817 -45.0325 147.679C-59.685 157.57 -73.4718 169.253 -85.4873 182.728L-89.9655 187.805C-91.4721 189.486 -92.8123 191.315 -94.2444 193.064C-95.6328 194.849 -97.1118 196.561 -98.4249 198.406L-102.394 203.916C-103.75 205.73 -104.983 207.629 -106.206 209.537L-109.903 215.237L-113.329 221.102C-114.469 223.06 -115.633 225 -116.641 227.03L-119.774 233.051C-120.847 235.04 -121.704 237.14 -122.679 239.176C-123.603 241.238 -124.627 243.252 -125.464 245.349L-128.011 251.617C-128.897 253.688 -129.643 255.813 -130.383 257.938L-132.628 264.293L-134.58 270.728C-135.23 272.871 -135.902 275.007 -136.41 277.183C-140.941 294.463 -143.649 312.045 -144.294 329.388C-144.923 346.4 -143.812 363.41 -140.979 380.14C-135.52 412.902 -123.329 442.35 -108.726 466.908C-114.498 456.662 -122.442 441.78 -128.357 425.997ZM269.055 451.347C273.189 443.547 276.897 435.521 280.161 427.305C276.866 435.669 273.206 443.743 269.055 451.347ZM291.783 287.763C292.177 290.04 292.654 292.24 292.925 294.445L293.776 300.965L294.213 304.181L294.532 307.417C294.753 309.594 295.001 311.768 295.275 313.937C296.617 325.976 297.058 338.114 296.594 350.245C296.156 362.361 294.575 374.378 292.296 386.107C291.218 391.99 289.696 397.743 288.233 403.462L285.688 411.911C284.875 414.726 283.791 417.44 282.86 420.19C282.044 422.43 281.2 424.647 280.335 426.848C283.56 418.691 286.313 410.349 288.58 401.869C285.275 414.09 280.95 426.008 275.654 437.49C274.304 440.26 273.086 443.101 271.605 445.83L267.154 454.101L262.184 462.333C260.477 465.102 258.551 467.794 256.682 470.607C257.943 468.445 259.246 466.309 260.592 464.201C262.086 461.778 263.568 459.077 265.063 456.526C266.587 453.992 267.845 451.446 268.885 449.323C269.926 447.2 270.713 445.481 271.058 444.464C270.444 445.687 269.798 446.892 269.162 448.105C269.843 446.793 270.511 445.475 271.166 444.15C271.148 444.224 271.097 444.353 271.058 444.464C285.478 415.55 293.861 383.555 295.807 351.403C297.829 319.235 293.114 286.921 282.571 257.323C287.527 268.781 290.2 278.661 291.783 287.763ZM171.95 139.171C183.383 145.294 194.253 152.452 204.434 160.56C205.577 161.435 206.701 162.343 207.819 163.257C231.94 183.294 251.404 208.43 265.235 236.228C260.605 227.06 255.212 218.331 249.464 209.904C242.861 200.18 235.379 191.117 227.343 182.66C211.349 165.632 192.566 151.55 172.33 140.482C174.102 141.335 175.991 142.278 177.968 143.292C180.054 144.32 182.092 145.443 184.078 146.659L181.49 145.05L178.829 143.566L173.509 140.603C169.938 138.679 166.26 136.959 162.634 135.144C158.905 133.559 155.241 131.815 151.461 130.356C148.635 129.315 145.846 128.165 143.009 127.164C152.833 130.342 162.535 134.228 171.95 139.171ZM-20.6868 136.315C-17.5307 134.739 -14.2949 133.298 -11.0963 131.786C-8.46422 130.572 -5.75761 129.529 -3.12585 128.406C-2.3644 128.015 -1.55094 127.62 -0.503935 127.172C0.554548 126.751 1.86873 126.341 3.59577 125.826C16.0641 121.277 28.0498 118.275 37.0581 117.089C54.1839 114.505 71.0305 113.822 87.2082 114.896C103.382 115.953 118.898 118.791 133.193 123.396C139.856 125.66 138.093 125.343 134.582 124.4L140.052 126.19C137.683 125.498 135.33 124.77 132.956 124.125L125.781 122.399C127.506 122.779 131.672 123.669 134.582 124.4C110.605 117.091 85.4647 113.993 60.7066 115.272C35.936 116.563 11.6519 122.464 -10.6926 132.004C-7.10539 130.466 -5.39969 129.609 -3.79607 128.753C-6.2087 129.771 -8.68074 130.692 -11.0963 131.786C-14.299 133.336 -17.5349 134.808 -20.6863 136.398L-29.9207 141.356C-26.9021 139.639 -23.7973 137.987 -20.6868 136.315Z" fill="#1c68f5" fill-opacity="0.1"/>
<path d="M178.871 540.986L179.79 540.446C178.822 540.986 177.877 541.549 176.899 542.076C177.561 541.722 178.228 541.372 178.871 540.986ZM261.099 424.794C267.895 409.227 272.962 391.387 275.395 376.5L275.331 376.531C269.014 413.668 252.899 448.321 229.388 476.738C233.616 471.925 237.726 467.007 241.714 461.988C246.442 453.807 254.425 440.43 261.099 424.794ZM-19.4991 536.196C0.561519 547.117 23.5937 555.231 47.9091 558.503C57.3623 559.655 66.8996 560.352 76.441 560.138C81.2126 560.195 85.9757 559.778 90.7358 559.507C93.1153 559.349 95.483 558.999 97.8553 558.756C100.226 558.485 102.602 558.255 104.951 557.814C94.2176 559.245 83.4267 560.073 72.6748 559.801C61.9321 559.536 51.2376 558.565 40.7127 556.721C30.222 554.798 19.8836 552.137 9.7717 548.756C-0.291717 545.286 -10.0527 541.042 -19.4991 536.196ZM191.633 511.948L186.965 515.275L182.125 518.359C178.943 520.493 175.579 522.334 172.238 524.233C175.619 522.421 179.034 520.666 182.268 518.618L187.178 515.661L191.902 512.46C191.679 512.406 190.557 512.932 191.633 511.948ZM134.049 540.427C131.416 541.329 128.712 541.981 126.014 542.683C123.317 543.39 120.622 544.124 117.869 544.619L121.598 544.057C122.73 543.852 123.755 543.688 124.657 543.575C127.791 542.501 130.947 541.632 134.049 540.427ZM21.186 541.854C24.7149 542.928 28.3854 543.734 32.0687 544.713C32.9928 544.964 34.5984 545.113 36.6206 545.339C32.2377 544.596 27.9261 543.397 23.5876 542.367C21.4282 541.811 19.3121 541.112 17.1795 540.501C15.0494 539.88 12.9268 539.259 10.8695 538.486L13.3763 539.415L15.9531 540.223L21.186 541.854Z" fill="#1c68f5" fill-opacity="0.1"/>
</svg>
