<svg width="48" height="48" viewBox="0 0 48 48" fill="none" xmlns="http://www.w3.org/2000/svg">
<rect width="48" height="48" rx="24" fill="#608AF4"/>
<path d="M28.1667 30.6654H19.8334C17.3334 30.6654 15.6667 28.9987 15.6667 26.4987V21.4987C15.6667 18.9987 17.3334 17.332 19.8334 17.332H28.1667C30.6667 17.332 32.3334 18.9987 32.3334 21.4987V26.4987C32.3334 28.9987 30.6667 30.6654 28.1667 30.6654Z" stroke="white" stroke-miterlimit="10" stroke-linecap="round" stroke-linejoin="round"/>
<path d="M23.5 21.9148L25.5833 23.1648C26.3333 23.6648 26.3333 24.4148 25.5833 24.9148L23.5 26.1648C22.6667 26.6648 22 26.2481 22 25.3315V22.8315C22 21.7481 22.6667 21.4148 23.5 21.9148Z" stroke="white" stroke-miterlimit="10" stroke-linecap="round" stroke-linejoin="round"/>
</svg>
